<svg xmlns="http://www.w3.org/2000/svg" viewBox="0 0 860 860"><defs><style>.cls-1{fill:#293235;}.cls-2{fill:#1f2528;}.cls-3{fill:none;}.cls-4{fill:#29b6f6;}.cls-5{fill:#0277bd;}.cls-6{fill:#1e272d;}.cls-7{fill:#1e323f;}</style></defs><g id="Layer_2" ><g id="Layer_1-2" ><rect class="cls-1" width="427.05" height="860"/><rect class="cls-1" x="427.05" width="5.91" height="860"/><rect class="cls-2" x="430" width="430" height="860"/><path class="cls-3" d="M431.5,697.69c6.4-.93,12.72-2.12,19-3.64a125.71,125.71,0,0,0,42.44-18.78A96.9,96.9,0,0,0,522.64,642q11.18-20.29,11.19-49.22,0-23.89-11.67-40.68T491,522.36a251,251,0,0,0-44.65-23.14l-14.8-6"/><path class="cls-3" d="M390.74,176.72a109.82,109.82,0,0,0-38.47,18.51,91.32,91.32,0,0,0-26.58,32.49q-9.87,19.78-9.86,47.19,0,24.42,11.67,42t31.2,30.51a246.8,246.8,0,0,0,44.89,23.14q12.21,4.91,24.91,9.8V171.05A172.69,172.69,0,0,0,390.74,176.72Z"/><path class="cls-4" d="M403.59,370.53a246.8,246.8,0,0,1-44.89-23.14q-19.54-13-31.2-30.51t-11.67-42q0-27.41,9.86-47.19a91.32,91.32,0,0,1,26.58-32.49,109.82,109.82,0,0,1,38.47-18.51,172.69,172.69,0,0,1,37.76-5.67V126.47a389.73,389.73,0,0,0-60.76,8.06q-40.37,8.66-72.1,29a156.47,156.47,0,0,0-51.26,53.92q-19.56,33.56-19.55,83.4,0,41.21,15,69.44a156.36,156.36,0,0,0,39.06,48.06,247.34,247.34,0,0,0,54.55,33.83q30.43,14,60.89,26.19,17.49,6.94,34.2,13.68V380.33Q415.81,375.43,403.59,370.53Z"/><path class="cls-5" d="M430,494.26l-2.06-.83c-11.59-4.66-23.1-9.26-34.2-13.68-20.14-8.06-40.65-16.88-61-26.21a250.51,250.51,0,0,1-54.87-34A158.54,158.54,0,0,1,238.47,371c-10.05-18.93-15.14-42.53-15.14-70.14,0-33.34,6.64-61.65,19.75-84.16a158.79,158.79,0,0,1,51.75-54.43c21.2-13.59,45.62-23.41,72.59-29.19a393.61,393.61,0,0,1,61-8.08l1.58-.09v47.6l-1.44.06a171.54,171.54,0,0,0-37.44,5.62,109,109,0,0,0-37.95,18.26,90.2,90.2,0,0,0-26.14,32c-6.44,12.9-9.7,28.55-9.7,46.52,0,15.91,3.84,29.75,11.42,41.13a108.39,108.39,0,0,0,30.78,30.1,246.59,246.59,0,0,0,44.62,23c8,3.2,16.35,6.49,24.89,9.79l1,.37Zm-3-366.2A388.58,388.58,0,0,0,368.05,136c-26.62,5.7-50.71,15.38-71.6,28.78a155.74,155.74,0,0,0-50.78,53.41c-12.83,22-19.34,49.85-19.34,82.65,0,27.12,5,50.24,14.79,68.74a155.66,155.66,0,0,0,38.69,47.61A248,248,0,0,0,334,450.81c20.27,9.31,40.73,18.11,60.83,26.16,10.44,4.15,21.24,8.47,32.14,12.85V381.35c-8.22-3.17-16.28-6.35-24-9.43h0a249.75,249.75,0,0,1-45.17-23.28,111.67,111.67,0,0,1-31.62-30.93c-7.91-11.89-11.92-26.29-11.92-42.8,0-18.43,3.37-34.54,10-47.86a93.24,93.24,0,0,1,27-33,111.83,111.83,0,0,1,39-18.77A174.76,174.76,0,0,1,427,169.62Z"/><path class="cls-4" d="M401.17,699.88A197.62,197.62,0,0,1,348.05,693a128.52,128.52,0,0,1-43.71-21.36,117.2,117.2,0,0,1-31.5-36.88q-12.46-22.38-16-52.9l-25,2.54q0,3.08.5,20.39t1.28,38.71q.75,21.39,1.78,42t2,31.33a13.41,13.41,0,0,0,3.3,6.87,12.89,12.89,0,0,0,7.37,4.33,660.53,660.53,0,0,0,67.36,11.72,566,566,0,0,0,67.88,4.08q22.34,0,45.17-2.22V698.1A210.74,210.74,0,0,1,401.17,699.88Z"/><path class="cls-5" d="M383.33,745.38a571.08,571.08,0,0,1-68.06-4.09,666.27,666.27,0,0,1-67.51-11.75,14.38,14.38,0,0,1-8.19-4.83,14.9,14.9,0,0,1-3.63-7.63c-.69-7.16-1.36-17.43-2.05-31.46-.68-13.68-1.28-27.83-1.78-42-.48-13.35-.91-26.38-1.28-38.71-.32-10.69-.5-18.14-.5-20.44v-1.35l27.82-2.84.17,1.47c2.34,20.08,7.67,37.7,15.84,52.35a116,116,0,0,0,31.09,36.41,127.36,127.36,0,0,0,43.2,21.11,196.55,196.55,0,0,0,52.72,6.81,212.62,212.62,0,0,0,27.14-1.76l1.69-.22V743l-1.36.13C413.31,744.63,398.07,745.38,383.33,745.38Zm-150-159.6c0,3.22.22,10.05.49,19,.37,12.32.8,25.34,1.28,38.69.5,14.21,1.1,28.35,1.78,42,.68,14,1.35,24.21,2,31.26a12,12,0,0,0,2.94,6,11.33,11.33,0,0,0,6.56,3.83,660.86,660.86,0,0,0,67.21,11.7,567.14,567.14,0,0,0,67.7,4.07c14.21,0,28.89-.71,43.67-2.09V699.81a214.85,214.85,0,0,1-25.83,1.57,199.63,199.63,0,0,1-53.52-6.92,130.25,130.25,0,0,1-44.21-21.61,119.07,119.07,0,0,1-31.91-37.34c-8.15-14.64-13.54-32.13-16-52Z"/><path class="cls-5" d="M436.28,170.88a156.32,156.32,0,0,1,45.3,6.34A110.59,110.59,0,0,1,547.38,230q11.39,20,16.45,47.93l26-2.55q0-3-.52-18.8T587.8,221.2q-1-19.56-2-38.64t-2-29.75a13.68,13.68,0,0,0-3.3-6.84,13.25,13.25,0,0,0-7.36-4.33,567.77,567.77,0,0,0-61.94-11.44,473.57,473.57,0,0,0-60.92-4.32q-9.41,0-18.72.44V171C433.09,170.9,434.68,170.88,436.28,170.88Z"/><path class="cls-4" d="M562.6,279.5l-.25-1.36c-3.32-18.33-8.8-34.29-16.28-47.45a109.13,109.13,0,0,0-64.92-52,155.81,155.81,0,0,0-44.87-6.27q-2.38,0-4.74.06l-1.54,0V124.89l1.43-.07c6.34-.3,12.66-.44,18.79-.44a476.8,476.8,0,0,1,61.12,4.34,569.7,569.7,0,0,1,62.1,11.46,14.75,14.75,0,0,1,8.14,4.82,15.14,15.14,0,0,1,3.64,7.6c.68,7.15,1.34,16.9,2,29.88l2,38.64c.65,12.72,1.16,24.61,1.51,35.36.35,10.47.52,16.81.52,18.85v1.36ZM436.28,169.38a158.54,158.54,0,0,1,45.73,6.4,112.14,112.14,0,0,1,66.67,53.43c7.46,13.12,13,28.94,16.37,47L588.31,274c0-2.86-.21-8.69-.5-17.39-.35-10.73-.86-22.61-1.51-35.3l-2-38.64c-.7-12.94-1.36-22.65-2-29.69a12.16,12.16,0,0,0-3-6,11.61,11.61,0,0,0-6.54-3.84A567.9,567.9,0,0,0,511,131.69a474.18,474.18,0,0,0-60.73-4.31c-5.62,0-11.41.12-17.22.37v41.66C434.09,169.39,435.18,169.38,436.28,169.38Z"/><path class="cls-5" d="M610.86,495.66a153.62,153.62,0,0,0-39.08-46.8,246,246,0,0,0-54.53-32.8q-30.45-13.47-60.87-25.18-12.67-4.71-24.88-9.4V493.25l14.8,6A251,251,0,0,1,491,522.36q19.53,13,31.21,29.77t11.67,40.68q0,28.92-11.19,49.22a96.9,96.9,0,0,1-29.73,33.24,125.71,125.71,0,0,1-42.44,18.78c-6.25,1.52-12.57,2.71-19,3.64v43.67c3.17-.32,6.35-.66,9.53-1.05a317.6,317.6,0,0,0,56.17-11.95,239.2,239.2,0,0,0,50.33-22.13,164,164,0,0,0,40.92-33.81,149,149,0,0,0,27.46-47q9.92-27,9.92-62.07Q625.83,523.14,610.86,495.66Z"/><path class="cls-4" d="M430,743V696.39l1.29-.19c6.53-.94,12.86-2.16,18.82-3.61A124.75,124.75,0,0,0,492.05,674a95.83,95.83,0,0,0,29.28-32.73c7.3-13.26,11-29.57,11-48.5,0-15.55-3.84-28.95-11.4-39.83s-18-20.85-30.81-29.37a250.41,250.41,0,0,0-44.38-23l-14.8-6-.94-.38v-115l2,.78c8.21,3.16,16.58,6.32,24.86,9.39,20.35,7.84,40.86,16.32,61,25.22a248.57,248.57,0,0,1,54.86,33,156,156,0,0,1,39.46,47.25h0c10.05,18.47,15.15,41.47,15.15,68.37,0,23.46-3.37,44.52-10,62.58a151.23,151.23,0,0,1-27.74,47.52,166.59,166.59,0,0,1-41.29,34.12,242,242,0,0,1-50.64,22.26,320.15,320.15,0,0,1-56.44,12c-2.79.34-5.83.68-9.56,1.06Zm3-44V739.7c3-.31,5.5-.59,7.85-.88a317.92,317.92,0,0,0,55.91-11.89,239.61,239.61,0,0,0,50-22,163.68,163.68,0,0,0,40.55-33.5,148.26,148.26,0,0,0,27.18-46.58c6.52-17.73,9.83-38.44,9.83-61.55,0-26.39-5-48.91-14.79-66.94h0A152.92,152.92,0,0,0,570.84,450a245.36,245.36,0,0,0-54.2-32.6c-20.05-8.87-40.51-17.34-60.8-25.16-7.6-2.81-15.27-5.71-22.84-8.61V492.23l13.86,5.6a253.81,253.81,0,0,1,44.92,23.28c13.13,8.73,23.76,18.87,31.61,30.16s11.94,25.37,11.94,41.54c0,19.44-3.83,36.24-11.37,49.94a98.93,98.93,0,0,1-30.2,33.75,127.6,127.6,0,0,1-42.93,19C445.16,696.89,439.17,698.05,433,699Z"/><path class="cls-2" d="M430,171l1.5,0V126.32l-1.5.06Z"/><path class="cls-6" d="M430,697.91v43.61l1.5-.16V697.69Z"/><path class="cls-7" d="M430,492.64l1.5.61V381.48l-1.5-.57Z"/><rect class="cls-4" x="29" y="282" width="186" height="14"/><rect class="cls-4" x="104" y="401" width="131" height="14"/><rect class="cls-4" x="78" y="515" width="367" height="14"/></g></g></svg>
